<svg xmlns="http://www.w3.org/2000/svg" data-name="Layer 1" width="802" height="537" viewBox="0 0 801.95277 537" xmlns:xlink="http://www.w3.org/1999/xlink"><path d="M 857.3 503 a 10.5 10.5 0 0 1 1.6 -0.3 l 21.9 -44.5 l -6.7 -10 l 13.8 -12.1 l 17.4 21.2 l -35.4 51.4 a 10.5 10.5 0 1 1 -12.6 -5.8 Z" transform="translate(-199,-181.5)" fill="#a0616a"/><path d="M 894.7 442.2 a 4.5 4.5 0 0 1 -1 0.8 l -22.4 13 a 4.5 4.5 0 0 1 -6.3 -2 l -10.9 -23 a 4.5 4.5 0 0 1 1.5 -5.6 l 13.9 -9.4 a 4.5 4.5 0 0 1 5.7 0.5 L 894.6 435.9 a 4.5 4.5 0 0 1 0.1 6.3 Z" transform="translate(-199,-181.5)" fill="#cccccc"/><polygon points="727.1,515.7 715.3,518.9 697.2,474.8 714.7,470.1 727.1,515.7" fill="#a0616a"/><path d="M 906.7 697.9 h 23.6 a 0 0 0 0 1 0 0 v 14.9 a 0 0 0 0 1 0 0 H 891.8 a 0 0 0 0 1 0 0 v 0 A 14.9 14.9 0 0 1 906.7 697.9 Z" transform="translate(-352.2,82.4) rotate(-15.2)" fill="#2f2e41"/><polygon points="626,524.7 613.7,524.7 607.9,477.4 626,477.4 626,524.7" fill="#a0616a"/><path d="M 604.9 521.2 h 23.6 a 0 0 0 0 1 0 0 v 14.9 a 0 0 0 0 1 0 0 H 590.1 a 0 0 0 0 1 0 0 v 0 A 14.9 14.9 0 0 1 604.9 521.2 Z" fill="#2f2e41"/><circle cx="638.9" cy="194.2" r="24.6" fill="#a0616a"/><path d="M 824.2 672.5 H 807.5 a 4.5 4.5 0 0 1 -4.5 -4.2 c -5 -79.4 -2.1 -136.3 9.2 -179.2 a 4.7 4.7 0 0 1 0.2 -0.6 l 0.9 -2.2 a 4.5 4.5 0 0 1 4.2 -2.8 h 34.5 a 4.5 4.5 0 0 1 3.4 1.6 l 4.7 5.5 c 0.1 0.1 0.2 0.2 0.3 0.3 c 21.1 29.4 40 87 61.9 164.3 a 4.5 4.5 0 0 1 -3 5.5 L 901.2 666.4 a 4.5 4.5 0 0 1 -5.4 -2.3 l -46.7 -96.9 a 3.5 3.5 0 0 0 -6.6 1 l -13.7 100.4 A 4.5 4.5 0 0 1 824.2 672.5 Z" transform="translate(-199,-181.5)" fill="#2f2e41"/><path d="M 858.1 490.9 c 0 0 -0.1 0 -0.1 0 l -41.8 -1.3 a 4.5 4.5 0 0 1 -4.3 -4 c -5.3 -42.9 9.2 -54.4 15.7 -57.4 a 3.5 3.5 0 0 0 2 -2.7 l 0.6 -4.5 a 4.5 4.5 0 0 1 0.9 -2.2 c 10.2 -13.2 24.1 -17.4 31.5 -18.8 a 4.5 4.5 0 0 1 5.3 3.8 l 0.8 6.5 a 3.6 3.6 0 0 0 0.7 1.7 c 21.3 27.8 -2.4 68.8 -7.4 76.8 h 0 A 4.5 4.5 0 0 1 858.1 490.9 Z" transform="translate(-199,-181.5)" fill="#cccccc"/><path d="M 887.5 378.4 A 97.8 97.8 0 0 0 867.9 358 c -6.2 -4.8 -13.1 -9 -20.7 -11 c -7.6 -2 -16 -1.6 -23 2 c -6.9 3.7 -14.1 11 -14.2 18.9 c 0 2.5 0.6 5.9 3.1 5.5 l 0.7 0.1 q 9 -1.8 18 -3.6 q 3.8 13.3 7.7 26.6 c 0.5 1.9 1.3 4 3 4.8 c 1.7 0.8 3.6 0 5.3 -0.7 c 0.3 -0.1 2.7 -5.5 2.7 -5.5 a 1 1 0 0 1 1.7 -0.3 l 1.4 1.8 a 2 2 0 0 0 2.3 0.6 q 14.7 -6.1 29.4 -12.3 c 1.4 -0.6 2.9 -1.3 3.3 -2.7 C 889.1 380.9 888.3 379.6 887.5 378.4 Z" transform="translate(-199,-181.5)" fill="#2f2e41"/><path d="M 1000 718.5 h -301 a 1 1 0 0 1 0 -2 h 301 a 1 1 0 0 1 0 2 Z" transform="translate(-199,-181.5)" fill="#3f3d56"/><path d="M 836.8 562.7 a 3.2 3.2 0 0 1 -1.9 -0.6 l -4.6 -3.3 a 2.2 2.2 0 0 0 -2.6 0 l -4.6 3.3 a 3.2 3.2 0 0 1 -4.9 -3.6 l 1.7 -5.4 a 2.2 2.2 0 0 0 -0.8 -2.5 l -4.6 -3.3 a 3.2 3.2 0 0 1 1.9 -5.8 h 5.6 a 2.2 2.2 0 0 0 2.1 -1.5 l 1.7 -5.4 a 3.2 3.2 0 0 1 6.1 0 l 1.7 5.4 a 2.2 2.2 0 0 0 2.1 1.5 h 5.6 a 3.2 3.2 0 0 1 1.9 5.8 l -4.6 3.3 a 2.2 2.2 0 0 0 -0.8 2.5 l 1.7 5.4 a 3.2 3.2 0 0 1 -1.2 3.6 A 3.2 3.2 0 0 1 836.8 562.7 Z" transform="translate(-199,-181.5)" fill="#493165"/><path d="M 854.2 552 a 10.7 10.7 0 0 0 1.4 -16.4 l 7.8 -93.9 l -23.1 3.2 l -0.4 91.2 a 10.8 10.8 0 0 0 14.4 15.9 Z" transform="translate(-199,-181.5)" fill="#a0616a"/><path d="M 864.9 455.2 a 4.5 4.5 0 0 1 -1.3 -0.2 l -24.8 -7.3 a 4.5 4.5 0 0 1 -2.9 -5.9 l 9.2 -23.8 a 4.5 4.5 0 0 1 5.2 -2.8 l 16.4 3.6 a 4.5 4.5 0 0 1 3.5 4.5 l -0.8 27.5 a 4.5 4.5 0 0 1 -4.5 4.4 Z" transform="translate(-199,-181.5)" fill="#cccccc"/><path d="M 631 572.5 H 206 a 7 7 0 0 1 -7 -7 v -127 a 7 7 0 0 1 7 -7 H 631 a 7 7 0 0 1 7 7 v 127 A 7 7 0 0 1 631 572.5 Z m -425 -139 a 5 5 0 0 0 -5 5 v 127 a 5 5 0 0 0 5 5 H 631 a 5 5 0 0 0 5 -5 v -127 a 5 5 0 0 0 -5 -5 Z" transform="translate(-199,-181.5)" fill="#3f3d56"/><path d="M 392 626 a 3.9 3.9 0 0 1 -2.3 -0.8 l -5.6 -4.1 a 2.7 2.7 0 0 0 -3.2 0 l -5.6 4.1 a 3.9 3.9 0 0 1 -6.1 -4.4 l 2.1 -6.6 a 2.7 2.7 0 0 0 -1 -3 l -5.6 -4.1 a 3.9 3.9 0 0 1 2.3 -7.1 h 6.9 a 2.7 2.7 0 0 0 2.6 -1.9 l 2.1 -6.6 a 3.9 3.9 0 0 1 7.5 0 l 2.1 6.6 a 2.7 2.7 0 0 0 2.6 1.9 h 6.9 a 3.9 3.9 0 0 1 2.3 7.1 l -5.6 4.1 a 2.7 2.7 0 0 0 -1 3 l 2.1 6.6 a 3.9 3.9 0 0 1 -1.4 4.4 A 3.9 3.9 0 0 1 392 626 Z" transform="translate(-199,-181.5)" fill="#493165"/><path d="M 448.5 626 a 3.9 3.9 0 0 1 -2.3 -0.8 l -5.6 -4.1 a 2.7 2.7 0 0 0 -3.2 0 l -5.6 4.1 a 3.9 3.9 0 0 1 -6.1 -4.4 l 2.1 -6.6 a 2.7 2.7 0 0 0 -1 -3 l -5.6 -4.1 a 3.9 3.9 0 0 1 2.3 -7.1 h 6.9 a 2.7 2.7 0 0 0 2.6 -1.9 l 2.1 -6.6 a 3.9 3.9 0 0 1 7.5 0 l 2.1 6.6 a 2.7 2.7 0 0 0 2.6 1.9 h 6.9 a 3.9 3.9 0 0 1 2.3 7.1 l -5.6 4.1 a 2.7 2.7 0 0 0 -1 3 l 2.1 6.6 a 3.9 3.9 0 0 1 -1.4 4.4 A 3.9 3.9 0 0 1 448.5 626 Z" transform="translate(-199,-181.5)" fill="#493165"/><path d="M 505 626 a 3.9 3.9 0 0 1 -2.3 -0.8 l -5.6 -4.1 a 2.7 2.7 0 0 0 -3.2 0 l -5.6 4.1 a 3.9 3.9 0 0 1 -6.1 -4.4 l 2.1 -6.6 a 2.7 2.7 0 0 0 -1 -3 l -5.6 -4.1 a 3.9 3.9 0 0 1 2.3 -7.1 h 6.9 a 2.7 2.7 0 0 0 2.6 -1.9 l 2.1 -6.6 a 3.9 3.9 0 0 1 7.5 0 l 2.1 6.6 a 2.7 2.7 0 0 0 2.6 1.9 h 6.9 a 3.9 3.9 0 0 1 2.3 7.1 l -5.6 4.1 a 2.7 2.7 0 0 0 -1 3 l 2.1 6.6 a 3.9 3.9 0 0 1 -1.4 4.4 A 3.9 3.9 0 0 1 505 626 Z" transform="translate(-199,-181.5)" fill="#493165"/><path d="M 561.5 626 a 3.9 3.9 0 0 1 -2.3 -0.8 l -5.6 -4.1 a 2.7 2.7 0 0 0 -3.2 0 L 544.9 625.2 a 3.9 3.9 0 0 1 -6.1 -4.4 l 2.1 -6.6 a 2.7 2.7 0 0 0 -1 -3 l -5.6 -4.1 a 3.9 3.9 0 0 1 2.3 -7.1 h 6.9 a 2.7 2.7 0 0 0 2.6 -1.9 l 2.1 -6.6 a 3.9 3.9 0 0 1 7.5 0 l 2.1 6.6 a 2.7 2.7 0 0 0 2.6 1.9 h 6.9 a 3.9 3.9 0 0 1 2.3 7.1 l -5.6 4.1 a 2.7 2.7 0 0 0 -1 3 l 2.1 6.6 A 3.9 3.9 0 0 1 563.8 625.2 A 3.9 3.9 0 0 1 561.5 626 Z" transform="matrix(1,0,0,1,-199,-181.5)" fill="#493165"/><path d="M 599.1 626.4 a 4.3 4.3 0 0 1 -2.5 -0.8 a 4.3 4.3 0 0 1 -1.6 -4.8 l 2.1 -6.6 a 2.3 2.3 0 0 0 -0.8 -2.6 l -5.6 -4.1 a 4.3 4.3 0 0 1 2.5 -7.8 H 600.1 a 2.3 2.3 0 0 0 2.2 -1.6 l 2.1 -6.6 a 4.3 4.3 0 0 1 8.2 0 l 2.1 6.6 a 2.3 2.3 0 0 0 2.2 1.6 h 6.9 a 4.3 4.3 0 0 1 2.5 7.8 l -5.6 4.1 a 2.3 2.3 0 0 0 -0.8 2.6 l 2.1 6.6 a 4.3 4.3 0 0 1 -6.7 4.8 l -5.6 -4.1 a 2.3 2.3 0 0 0 -2.7 0 l -5.6 4.1 A 4.3 4.3 0 0 1 599.1 626.4 Z m 9.5 -7.3 a 4.3 4.3 0 0 1 2.5 0.8 l 5.6 4.1 a 2.3 2.3 0 0 0 3.6 -2.6 l -2.1 -6.6 a 4.3 4.3 0 0 1 1.6 -4.8 l 5.6 -4.1 a 2.3 2.3 0 0 0 -1.4 -4.2 h -6.9 a 4.3 4.3 0 0 1 -4.1 -3 l -2.1 -6.6 a 2.3 2.3 0 0 0 -4.4 0 l -2.1 6.6 a 4.3 4.3 0 0 1 -4.1 3 h -6.9 a 2.3 2.3 0 0 0 -1.4 4.2 l 5.6 4.1 a 4.3 4.3 0 0 1 1.6 4.8 l -2.1 6.6 a 2.3 2.3 0 0 0 3.6 2.6 l 5.6 -4.1 A 4.3 4.3 0 0 1 608.5 619 Z" transform="translate(-199,-181.5)" fill="#3f3d56"/><path d="M 254 461.5 a 6.5 6.5 0 0 0 0 13 h 329 a 6.5 6.5 0 1 0 0 -13 Z" transform="translate(-199,-181.5)" fill="#cccccc"/><path d="M 254 495.5 a 6.5 6.5 0 0 0 0 13 h 329 a 6.5 6.5 0 1 0 0 -13 Z" transform="translate(-199,-181.5)" fill="#cccccc"/><path d="M 254 529.5 a 6.5 6.5 0 0 0 0 13 h 329 a 6.5 6.5 0 1 0 0 -13 Z" transform="translate(-199,-181.5)" fill="#cccccc"/><path d="M 254 461.5 a 6.5 6.5 0 0 0 0 13 h 329 a 6.5 6.5 0 1 0 0 -13 Z" transform="translate(-199,-181.5)" fill="#cccccc"/><path d="M 254 495.5 a 6.5 6.5 0 0 0 0 13 h 329 a 6.5 6.5 0 1 0 0 -13 Z" transform="translate(-199,-181.5)" fill="#cccccc"/><path d="M 254 529.5 a 6.5 6.5 0 0 0 0 13 h 329 a 6.5 6.5 0 1 0 0 -13 Z" transform="translate(-199,-181.5)" fill="#cccccc"/><path d="M 631 322.5 H 206 a 7 7 0 0 1 -7 -7 v -127 a 7 7 0 0 1 7 -7 H 631 a 7 7 0 0 1 7 7 v 127 A 7 7 0 0 1 631 322.5 Z m -425 -139 a 5 5 0 0 0 -5 5 v 127 a 5 5 0 0 0 5 5 H 631 a 5 5 0 0 0 5 -5 v -127 a 5 5 0 0 0 -5 -5 Z" transform="translate(-199,-181.5)" fill="#3f3d56"/><path d="M 392 376 a 3.9 3.9 0 0 1 -2.3 -0.8 l -5.6 -4.1 a 2.7 2.7 0 0 0 -3.2 0 l -5.6 4.1 a 3.9 3.9 0 0 1 -6.1 -4.4 l 2.1 -6.6 a 2.7 2.7 0 0 0 -1 -3 l -5.6 -4.1 a 3.9 3.9 0 0 1 2.3 -7.1 h 6.9 a 2.7 2.7 0 0 0 2.6 -1.9 l 2.1 -6.6 a 3.9 3.9 0 0 1 7.5 0 l 2.1 6.6 a 2.7 2.7 0 0 0 2.6 1.9 h 6.9 a 3.9 3.9 0 0 1 2.3 7.1 l -5.6 4.1 a 2.7 2.7 0 0 0 -1 3 l 2.1 6.6 a 3.9 3.9 0 0 1 -1.4 4.4 A 3.9 3.9 0 0 1 392 376 Z" transform="translate(-199,-181.5)" fill="#493165"/><path d="M 448.5 376 a 3.9 3.9 0 0 1 -2.3 -0.8 l -5.6 -4.1 a 2.7 2.7 0 0 0 -3.2 0 l -5.6 4.1 a 3.9 3.9 0 0 1 -6.1 -4.4 l 2.1 -6.6 a 2.7 2.7 0 0 0 -1 -3 l -5.6 -4.1 a 3.9 3.9 0 0 1 2.3 -7.1 h 6.9 a 2.7 2.7 0 0 0 2.6 -1.9 l 2.1 -6.6 a 3.9 3.9 0 0 1 7.5 0 l 2.1 6.6 a 2.7 2.7 0 0 0 2.6 1.9 h 6.9 a 3.9 3.9 0 0 1 2.3 7.1 l -5.6 4.1 a 2.7 2.7 0 0 0 -1 3 l 2.1 6.6 a 3.9 3.9 0 0 1 -1.4 4.4 A 3.9 3.9 0 0 1 448.5 376 Z" transform="translate(-199,-181.5)" fill="#493165"/><path d="M 505 376 a 3.9 3.9 0 0 1 -2.3 -0.8 l -5.6 -4.1 a 2.7 2.7 0 0 0 -3.2 0 l -5.6 4.1 a 3.9 3.9 0 0 1 -6.1 -4.4 l 2.1 -6.6 a 2.7 2.7 0 0 0 -1 -3 l -5.6 -4.1 a 3.9 3.9 0 0 1 2.3 -7.1 h 6.9 a 2.7 2.7 0 0 0 2.6 -1.9 l 2.1 -6.6 a 3.9 3.9 0 0 1 7.5 0 l 2.1 6.6 a 2.7 2.7 0 0 0 2.6 1.9 h 6.9 a 3.9 3.9 0 0 1 2.3 7.1 l -5.6 4.1 a 2.7 2.7 0 0 0 -1 3 l 2.1 6.6 a 3.9 3.9 0 0 1 -1.4 4.4 A 3.9 3.9 0 0 1 505 376 Z" transform="matrix(1,0,0,1,-199,-181.5)" fill="#493165"/><path d="M 599.1 376.4 a 4.3 4.3 0 0 1 -2.5 -0.8 a 4.3 4.3 0 0 1 -1.6 -4.8 l 2.1 -6.6 a 2.3 2.3 0 0 0 -0.8 -2.6 l -5.6 -4.1 a 4.3 4.3 0 0 1 2.5 -7.8 H 600.1 a 2.3 2.3 0 0 0 2.2 -1.6 l 2.1 -6.6 a 4.3 4.3 0 0 1 8.2 0 l 2.1 6.6 a 2.3 2.3 0 0 0 2.2 1.6 h 6.9 a 4.3 4.3 0 0 1 2.5 7.8 l -5.6 4.1 a 2.3 2.3 0 0 0 -0.8 2.6 l 2.1 6.6 a 4.3 4.3 0 0 1 -6.7 4.8 l -5.6 -4.1 a 2.3 2.3 0 0 0 -2.7 0 l -5.6 4.1 A 4.3 4.3 0 0 1 599.1 376.4 Z m 9.5 -7.3 a 4.3 4.3 0 0 1 2.5 0.8 l 5.6 4.1 a 2.3 2.3 0 0 0 3.6 -2.6 l -2.1 -6.6 a 4.3 4.3 0 0 1 1.6 -4.8 l 5.6 -4.1 a 2.3 2.3 0 0 0 -1.4 -4.2 h -6.9 a 4.3 4.3 0 0 1 -4.1 -3 l -2.1 -6.6 a 2.3 2.3 0 0 0 -4.4 0 l -2.1 6.6 a 4.3 4.3 0 0 1 -4.1 3 h -6.9 a 2.3 2.3 0 0 0 -1.4 4.2 l 5.6 4.1 a 4.3 4.3 0 0 1 1.6 4.8 l -2.1 6.6 a 2.3 2.3 0 0 0 3.6 2.6 l 5.6 -4.1 A 4.3 4.3 0 0 1 608.5 369 Z" transform="translate(-199,-181.5)" fill="#3f3d56"/><path d="M 542.1 376.2 a 4.3 4.3 0 0 1 -2.5 -0.8 a 4.3 4.3 0 0 1 -1.6 -4.8 l 2.1 -6.6 a 2.3 2.3 0 0 0 -0.8 -2.6 l -5.6 -4.1 A 4.3 4.3 0 0 1 536.2 349.5 H 543.1 a 2.3 2.3 0 0 0 2.2 -1.6 l 2.1 -6.6 a 4.3 4.3 0 0 1 8.2 0 l 2.1 6.6 a 2.3 2.3 0 0 0 2.2 1.6 h 6.9 a 4.3 4.3 0 0 1 2.5 7.8 l -5.6 4.1 a 2.3 2.3 0 0 0 -0.8 2.6 l 2.1 6.6 a 4.3 4.3 0 0 1 -6.7 4.8 l -5.6 -4.1 a 2.3 2.3 0 0 0 -2.7 0 l -5.6 4.1 A 4.3 4.3 0 0 1 542.1 376.2 Z m 9.5 -7.3 a 4.3 4.3 0 0 1 2.5 0.8 l 5.6 4.1 a 2.3 2.3 0 0 0 3.6 -2.6 l -2.1 -6.6 a 4.3 4.3 0 0 1 1.6 -4.8 l 5.6 -4.1 a 2.3 2.3 0 0 0 -1.4 -4.2 h -6.9 a 4.3 4.3 0 0 1 -4.1 -3 l -2.1 -6.6 a 2.3 2.3 0 0 0 -4.4 0 l -2.1 6.6 A 4.3 4.3 0 0 1 543.1 351.5 h -6.9 a 2.3 2.3 0 0 0 -1.4 4.2 l 5.6 4.1 a 4.3 4.3 0 0 1 1.6 4.8 l -2.1 6.6 a 2.3 2.3 0 0 0 3.6 2.6 l 5.6 -4.1 A 4.3 4.3 0 0 1 551.5 368.9 Z" transform="translate(-199,-181.5)" fill="#3f3d56"/><path d="M 254 211.5 a 6.5 6.5 0 0 0 0 13 h 329 a 6.5 6.5 0 0 0 0 -13 Z" transform="translate(-199,-181.5)" fill="#cccccc"/><path d="M 254 245.5 a 6.5 6.5 0 0 0 0 13 h 329 a 6.5 6.5 0 0 0 0 -13 Z" transform="translate(-199,-181.5)" fill="#cccccc"/><path d="M 254 279.5 a 6.5 6.5 0 0 0 0 13 h 329 a 6.5 6.5 0 0 0 0 -13 Z" transform="translate(-199,-181.5)" fill="#cccccc"/><path d="M 254 211.5 a 6.5 6.5 0 0 0 0 13 h 329 a 6.5 6.5 0 0 0 0 -13 Z" transform="translate(-199,-181.5)" fill="#cccccc"/><path d="M 254 245.5 a 6.5 6.5 0 0 0 0 13 h 329 a 6.5 6.5 0 0 0 0 -13 Z" transform="translate(-199,-181.5)" fill="#cccccc"/><path d="M 254 279.5 a 6.5 6.5 0 0 0 0 13 h 329 a 6.5 6.5 0 0 0 0 -13 Z" transform="translate(-199,-181.5)" fill="#cccccc"/>
    <path fill="#493165" transform="matrix(1,0,0,1,-199,-181.5)" d="M 561.1 375.5 C 560.2 375.5 559.4 375.2 558.8 374.7 l -5.6 -4.1 C 552.2 369.9 550.9 369.9 550 370.6 l -5.6 4.1 C 543 375.8 541.1 375.8 539.7 374.8 C 538.2 373.8 537.7 371.9 538.3 370.3 l 2.1 -6.6 C 540.7 362.6 540.3 361.4 539.4 360.7 l -5.6 -4.1 C 532.4 355.6 531.8 353.8 532.3 352.2 C 532.8 350.5 534.4 349.4 536.1 349.5 h 6.9 C 544.2 349.5 545.2 348.7 545.6 347.6 l 2.1 -6.6 C 548.2 339.3 549.7 338.2 551.4 338.2 C 553.2 338.2 554.7 339.3 555.2 341 l 2.1 6.6 C 557.6 348.7 558.7 349.5 559.9 349.5 h 6.9 C 568.5 349.4 570 350.5 570.6 352.2 C 571.1 353.8 570.5 355.6 569.1 356.6 l -5.6 4.1 C 562.5 361.4 562.1 362.6 562.5 363.7 l 2.1 6.6 C 565.1 371.9 564.6 373.7 563.2 374.7 C 562.6 375.1 561.8 375.4 561.1 375.5 Z"/>
    <path fill="#493165" transform="matrix(1,0,0,1,-199,-181.5)" d="M 619.1 376.5 C 618.2 376.5 617.4 376.2 616.8 375.7 l -5.6 -4.1 C 610.2 370.9 608.9 370.9 608 371.6 l -5.6 4.1 C 601 376.8 599.1 376.8 597.7 375.8 C 596.2 374.8 595.7 372.9 596.3 371.3 l 2.1 -6.6 C 598.7 363.6 598.3 362.4 597.4 361.7 l -5.6 -4.1 C 590.4 356.6 589.8 354.8 590.3 353.2 C 590.8 351.5 592.4 350.4 594.1 350.5 h 6.9 C 602.2 350.5 603.2 349.7 603.6 348.6 l 2.1 -6.6 C 606.2 340.3 607.7 339.2 609.4 339.2 C 611.2 339.2 612.7 340.3 613.2 342 l 2.1 6.6 C 615.6 349.7 616.7 350.5 617.9 350.5 h 6.9 C 626.5 350.4 628 351.5 628.6 353.2 C 629.1 354.8 628.5 356.6 627.1 357.6 l -5.6 4.1 C 620.5 362.4 620.1 363.6 620.5 364.7 l 2.1 6.6 C 623.1 372.9 622.6 374.7 621.2 375.7 C 620.6 376.1 619.8 376.4 619.1 376.5 Z"/>
    <path fill="#493165" transform="matrix(1,0,0,1,-199,-181.5)" d="M 617.6 625.5 C 616.7 625.5 615.9 625.2 615.3 624.7 l -5.6 -4.1 C 608.7 619.9 607.4 619.9 606.5 620.6 L 601 624.7 C 599.6 625.8 597.7 625.8 596.3 624.8 C 594.8 623.8 594.3 621.9 594.9 620.3 l 2.1 -6.6 C 597.3 612.6 596.9 611.4 596 610.7 l -5.6 -4.1 C 589 605.6 588.4 603.8 588.9 602.2 C 589.4 600.5 591 599.4 592.7 599.5 h 6.9 C 600.8 599.5 601.8 598.7 602.2 597.6 l 2.1 -6.6 C 604.8 589.3 606.3 588.2 608 588.2 C 609.8 588.2 611.3 589.3 611.8 591 l 2.1 6.6 C 614.2 598.7 615.3 599.5 616.5 599.5 h 6.9 C 625.1 599.4 626.6 600.5 627.2 602.2 C 627.7 603.8 627.1 605.6 625.7 606.6 l -5.6 4.1 C 619.1 611.4 618.7 612.6 619.1 613.7 l 2.1 6.6 C 621.7 621.9 621.2 623.7 619.9 624.7 C 619.2 625.2 618.4 625.5 617.6 625.5 Z"/>
</svg>