<svg xmlns="http://www.w3.org/2000/svg" width="643" height="699.6" viewBox="0 0 642.99652 699.63874" xmlns:xlink="http://www.w3.org/1999/xlink"><path d="M 526.4 329.6 c 19.9 12.8 38.5 30 56 51.2 v 32.4 c -8.5 -2.9 -41 -14.9 -53.9 -33.9 c -14.8 -22 -17.5 -55.3 -5.1 -63.7 c 3.2 -2.2 7.1 -2.4 11.4 -1.3 c 13.5 9.7 26.5 21.5 38.8 35.3 c 4.4 6.7 7.1 15.3 8.8 24 v 0.4 c -16 -22.3 -34.8 -36.7 -56 -44.4 Z" fill="#fbfbfb"/><path d="M 525.4 130.6 c 19.9 12.8 38.5 30 56 51.2 v 7.4 c -1.7 -0.6 -4.3 -1.5 -7.4 -2.7 c -14.3 -16.9 -30.6 -28.3 -48.6 -34.9 c 12.6 8.1 24.7 18 36.3 29.5 c -12.3 -5.9 -26.6 -14.7 -34.2 -25.8 c -0.8 -1.2 -1.6 -2.4 -2.3 -3.6 c -12.7 -21.1 -13.5 -44.2 -1.8 -52.1 c 12.4 -8.4 34 3.5 48.9 25.4 c 8.6 12.7 11 32.4 11.5 46.8 c -0.8 1 -1.6 2.1 -2.3 3.2 c -16 -22.3 -34.8 -36.7 -56 -44.4 Z" fill="#fbfbfb"/><path d="M 638.6 248.8 v 0 c -1.4 3.9 -3.2 7.9 -5.3 11.8 c -3.1 5.8 -8 11.2 -13.5 16 c -5.9 5.2 -12.5 9.7 -18.6 13.4 c -8.5 5.1 -16 8.6 -18.9 9.9 v -3.1 c 16.9 -20.1 34.8 -36.5 54 -48.8 c -20.3 7.4 -38.4 21 -54 41.7 v -13.9 c 16.9 -20.1 34.8 -36.5 54 -48.8 c -20.3 7.4 -38.4 21 -54 41.7 v -13.9 c 16.7 -19.8 34.4 -36 53.2 -48.3 c 8.8 7.1 9.6 24.3 3 42.3 v 0 Z" fill="#fbfbfb"/><circle cx="143.7" cy="245.5" r="143.7" fill="#ff6884"/><path id="uuid-9ac3c440-2c29-483e-b5ea-f157a67fda2d-137" d="M 593.9 475.9 c 12.1 10.2 16.6 24.7 10.1 32.4 c -6.5 7.7 -21.5 5.7 -33.6 -4.5 c -4.9 -4 -8.7 -9.1 -11.2 -14.9 l -50.7 -43.8 l 21.1 -23.3 l 47.7 45.6 c 6.1 1.5 11.8 4.4 16.6 8.6 h 0 Z" fill="#fcb4b4"/><polygon points="553,443.5 491,364 432.4,256.6 430.8,405.5 518.8,477.7 553,443.5" fill="#2f2e41"/><polygon points="283.6,224.6 297.7,160.1 345.2,162.4 357.3,209.2 283.6,224.6" fill="#fcb4b4"/><polygon points="283.6,224.6 297.7,160.1 345.2,162.4 357.3,209.2 283.6,224.6" isolation="isolate" opacity=".1"/><circle cx="320.3" cy="124.3" r="53.1" fill="#fcb4b4"/><path d="M 296.5 144.8 v 0 s -5.4 -0.1 -16.5 -2.1 c -11.1 -2.1 8.2 24 8.2 24 c -52.4 -21.9 -35.6 -77.4 -35.6 -77.4 c -53.2 -10.2 -30.9 -57.5 -30.9 -57.5 c 0 0 17.5 -33.8 71.5 -31.7 c 53.9 2.2 28.4 55.3 28.4 55.3 c 35.1 0.1 39.1 31.7 39.1 31.7 c 0 0 -12.7 1.6 -35.7 7.4 c -23 5.8 -28.4 50.3 -28.4 50.3 l 0 0 l 0 0 h 0 Z" fill="#2f2e41"/><path d="M 294.4 204.3 l -2.4 -4.7 s -42.7 4.9 -49.7 11.5 s -23 35.5 -23 35.5 l 35 30 l 40.1 -72.3 v 0 Z" fill="#ffb6b6"/><path d="M 347.4 203.2 s 32 -8.5 50 9.5 s 39 51 39 51 l -1 26 l -50 -24.1 l -38 -62.4 v 0 Z" fill="#ffb6b6"/><path d="M 355.5 199.6 s 41.8 -15 68.8 17 s 35 133 35 133 c 0 0 61 187 46 189 s -106.5 7.5 -106.5 7.5 l -31.5 -203.5 l -14 -143 h 2.2 v 0 Z" fill="#2f2e41"/><path d="M 259.4 379.6 l -10 36 l 136 10 s -5 -30.1 0 -41 l -126 -5 Z" fill="#fcb4b4"/><polygon points="336.4,613.6 342.4,699.6 417.9,697.6 415.4,610.6 336.4,613.6" fill="#fcb4b4"/><polygon points="218.5,605.1 196.4,698.6 275.4,698.1 295.6,621.7 218.5,605.1" fill="#fcb4b4"/><path d="M 353.4 199.6 h -61.3 l -49.7 66 l 11 135 s 25 -7 60 -7 h 75 s -11 -35 3 -49 s 4 -79 4 -79 l -42 -66 v 0 Z" fill="#fbfbfb"/><path d="M 244.4 404.6 l -56 203 s 82.5 33.1 132.2 23.6 s 117.8 -12.6 117.8 -12.6 l -48 -206 l -146 -8 v 0 Z" fill="#2f2e41"/><path id="uuid-73c6c48b-3ad6-4bf4-ae9b-2aead64e96c3-138" d="M 373.9 478.9 c 12.1 10.2 16.6 24.7 10.1 32.4 c -6.5 7.7 -21.5 5.7 -33.6 -4.5 c -4.9 -4 -8.7 -9.1 -11.2 -14.9 l -50.7 -43.8 l 21.1 -23.3 l 47.7 45.6 c 6.1 1.5 11.8 4.4 16.6 8.6 Z" fill="#fcb4b4"/><polygon points="343,443.5 281,364 222.4,256.6 220.8,405.5 308.8,477.7 343,443.5" fill="#2f2e41"/><path d="M 296.2 199.6 s -41.8 -15 -68.8 17 s -35 133 -35 133 c 0 0 -61 187 -46 189 s 106.5 7.5 106.5 7.5 l 31.5 -203.5 l 14 -143 h -2.2 v 0 Z" fill="#2f2e41"/><rect x="581.4" y="161.6" width="2" height="348" fill="rgb(255, 255, 255)"/><path d="M 27.4 518.6 c 19.9 12.8 38.5 30 56 51.2 v 32.4 c -8.5 -2.9 -41 -14.9 -53.9 -33.9 c -14.8 -22 -17.5 -55.3 -5.1 -63.7 c 3.2 -2.2 7.1 -2.4 11.4 -1.3 c 13.5 9.7 26.5 21.5 38.8 35.3 c 4.4 6.7 7.1 15.3 8.8 24 v 0.4 c -16 -22.3 -34.8 -36.7 -56 -44.4 Z" fill="#fbfbfb"/><path d="M 26.4 319.6 c 19.9 12.8 38.5 30 56 51.2 v 7.4 c -1.7 -0.6 -4.3 -1.5 -7.4 -2.7 c -14.3 -16.9 -30.6 -28.3 -48.6 -34.9 c 12.6 8.1 24.7 18 36.3 29.5 c -12.3 -5.9 -26.6 -14.7 -34.2 -25.8 c -0.8 -1.2 -1.6 -2.4 -2.3 -3.6 c -12.7 -21.1 -13.5 -44.2 -1.8 -52.1 c 12.4 -8.4 34 3.5 48.9 25.4 c 8.6 12.7 11 32.4 11.5 46.8 c -0.8 1 -1.6 2.1 -2.3 3.2 c -16 -22.3 -34.8 -36.7 -56 -44.4 Z" fill="#fbfbfb"/><path d="M 139.6 437.8 v 0 c -1.4 3.9 -3.2 7.9 -5.3 11.8 c -3.1 5.8 -8 11.2 -13.5 16 c -5.9 5.2 -12.5 9.7 -18.6 13.4 c -8.5 5.1 -16 8.6 -18.9 9.9 v -3.1 c 16.9 -20.1 34.8 -36.5 54 -48.8 c -20.3 7.4 -38.4 21 -54 41.7 v -13.9 c 16.9 -20.1 34.8 -36.5 54 -48.8 c -20.3 7.4 -38.4 21 -54 41.7 v -13.9 c 16.7 -19.8 34.4 -36 53.2 -48.3 c 8.8 7.1 9.6 24.3 3 42.3 Z" fill="#fbfbfb"/><rect x="82.4" y="350.6" width="2" height="348" fill="rgb(255, 255, 255)"/></svg>